<?xml version="1.0" encoding="UTF-8" standalone="no"?>
<!-- Created with Inkscape (http://www.inkscape.org/) -->

<svg
   width="210mm"
   height="210mm"
   viewBox="0 0 210 210"
   version="1.1"
   id="svg1"
   xml:space="preserve"
   xmlns:xlink="http://www.w3.org/1999/xlink"
   xmlns="http://www.w3.org/2000/svg"
   xmlns:svg="http://www.w3.org/2000/svg"><defs
     id="defs1" /><g
     id="layer4"
     style="display:inline"
     transform="translate(0,-670.45412)"><g
       id="g5"
       style="display:none"
       transform="matrix(1.0695011,0,0,1.0695011,30.401531,630.85884)"><path
         id="path3"
         style="display:inline;fill:none;stroke:#000927;stroke-width:3;stroke-linecap:round;stroke-linejoin:round;stroke-dasharray:none"
         d="m 163.7636,116.16427 c -3.52959,30.36884 -58.82952,99.10755 -58.82952,99.10755 0,0 -55.804161,-68.4866 -58.829524,-99.10755 C 42.39978,78.666705 72.44343,55.125893 104.93408,55.125893 c 32.49065,1e-6 63.35421,22.107614 58.82952,61.038377 z" /><path
         d="m 91.556805,130.803 c -4.239684,8.86892 -2.910113,19.0453 3.378945,25.86201 6.84503,7.32513 17.9614,9.10707 27.54158,4.41486 l 39.05414,42.23578 c 0,0 5.39164,5.83092 10.94483,0.69606 5.5532,-5.13487 0.16152,-10.96577 0.16152,-10.96577 L 133.6542,150.88643 c 5.44748,-9.21922 4.51029,-20.48677 -2.31885,-27.87896 -6.30433,-6.80261 -16.34565,-8.9235 -25.5188,-5.38998 l 13.51914,14.62053 -14.2597,13.1855 z"
         style="display:inline;fill:none;stroke:#000927;stroke-width:3.20421;stroke-linecap:round;stroke-linejoin:round"
         id="path4" /><path
         id="path5"
         style="display:inline;fill:none;stroke:#000927;stroke-width:3;stroke-linecap:round;stroke-linejoin:round;stroke-dasharray:none"
         d="m 82.995345,87.852126 c -10.865549,6e-6 -19.930043,10.511684 -19.674451,23.472774 0.411052,20.84421 41.267166,49.07449 41.672706,49.36324 0.41867,-0.28875 41.27446,-28.51903 41.68551,-49.36324 C 146.9347,98.36381 137.87021,87.852132 127.00466,87.852126 116.32574,87.852125 105.37314,102.01272 105,102.49914 104.62686,102.01272 93.674255,87.852125 82.995345,87.852126 Z" /></g><g
       id="g2"
       transform="matrix(1.451548,0,0,1.451548,-91.086541,44.677312)"
       style="display:inline"><path
         id="path1"
         style="display:inline;fill:none;stroke:#111827;stroke-width:3.95309;stroke-linecap:round;stroke-linejoin:round;stroke-dasharray:none;stroke-opacity:1"
         d="m 134.74155,456.45249 -2e-5,-2.4e-4 c 23.67636,0 46.16716,16.11044 42.86996,44.47984 -0.97345,8.37576 -7.35522,20.75489 -14.90669,32.90957 l -7.03442,-7.60717 c 2.5042,-4.23804 3.15239,-9.06894 2.04366,-13.41131 3.68642,-4.48723 6.55012,-9.1972 7.2728,-13.56722 0.10313,-0.62432 0.16283,-1.24173 0.17473,-1.85049 0.18627,-9.44492 -6.41903,-17.10514 -14.33691,-17.10514 -0.48635,0 -0.97361,0.0405 -1.45962,0.11622 -5.34592,0.83233 -10.55254,5.9428 -13.04979,8.74027 -0.90808,1.01729 -1.45767,1.72857 -1.52587,1.81737 -0.068,-0.0886 -0.61781,-0.80008 -1.52587,-1.81737 -2.72418,-3.05179 -8.67265,-8.85627 -14.50903,-8.85627 -7.91788,0 -14.5235,7.66022 -14.33731,17.10514 0.11306,5.73445 4.42114,12.22571 9.75929,18.10156 1.06763,1.17515 2.17632,2.3258 3.30103,3.44075 2.24947,2.2299 4.56254,4.31745 6.73654,6.17469 0.71249,1.9465 1.7965,3.75658 3.24158,5.32289 3.11752,3.33616 7.4511,5.09551 11.96715,5.10931 0.45148,10e-4 0.90496,-0.0144 1.35905,-0.0478 2.27109,-0.16775 4.56205,-0.77556 6.74368,-1.84406 l 8.99033,9.72275 c -10.84115,16.15201 -21.77427,29.76744 -21.77427,29.76744 0,0 -40.665347,-49.90703 -42.869947,-72.22091 -2.69974,-27.32498 19.193557,-44.47982 42.869947,-44.47982 z m 6.99298,44.31037 -5.9e-4,8.1e-4 c 0.52037,-0.005 1.03721,0.0204 1.5511,0.0611 0.14545,0.0117 0.2899,0.0291 0.43458,0.0429 0.3977,0.0415 0.79234,0.0972 1.18395,0.16643 0.12458,0.0217 0.24999,0.0399 0.37392,0.0646 0.49944,0.0996 0.99365,0.21894 1.47958,0.36264 0.0849,0.0253 0.16754,0.0567 0.25194,0.0832 0.40325,0.12644 0.80065,0.26879 1.19221,0.42553 0.13907,0.0557 0.27725,0.11345 0.41462,0.17275 0.38647,0.16723 0.76634,0.34896 1.13874,0.54602 0.0783,0.0411 0.15913,0.0773 0.23683,0.11998 0.44247,0.24353 0.87231,0.51089 1.29126,0.79644 0.10496,0.0716 0.20598,0.14965 0.30955,0.22375 0.3216,0.23074 0.63512,0.47398 0.9403,0.7298 0.14512,0.12164 0.29196,0.2406 0.43308,0.36789 0.0738,0.0664 0.14717,0.13298 0.21987,0.20098 0.27178,0.25448 0.53867,0.51584 0.79418,0.79157 1.6075,1.74001 2.76364,3.77553 3.46223,5.95964 0.0999,0.31203 0.19028,0.62719 0.27148,0.94484 1.10873,4.3424 0.46056,9.17325 -2.04363,13.41132 l 7.03439,7.60717 21.37355,23.11542 c 0,0 3.9289,4.24904 -0.1178,7.9909 -4.04666,3.74183 -7.97584,-0.50725 -7.97584,-0.50725 l -19.46889,-21.05501 -8.99032,-9.72276 c -6.98117,3.41924 -15.08185,2.12044 -20.06992,-3.21746 -1.44503,-1.56629 -2.52905,-3.3764 -3.24155,-5.32288 -0.19339,-0.52835 -0.35928,-1.06688 -0.49744,-1.61325 -0.1383,-0.54634 -0.24861,-1.10056 -0.33101,-1.66068 -0.0824,-0.56013 -0.13677,-1.12613 -0.16267,-1.69572 -0.0252,-0.5696 -0.023,-1.14273 0.008,-1.71755 0.0306,-0.57484 0.0906,-1.15118 0.17907,-1.72697 0.0884,-0.57579 0.20544,-1.15108 0.3521,-1.72359 0.14654,-0.5725 0.3225,-1.14242 0.52758,-1.7074 0.20521,-0.56493 0.43978,-1.12487 0.70419,-1.678 l 9.85157,10.6544 10.39155,-9.60865 -9.85155,-10.65404 c 0.47757,-0.18396 0.95909,-0.34103 1.44191,-0.48314 0.15156,-0.0447 0.30367,-0.0813 0.45567,-0.12176 0.33898,-0.0905 0.67847,-0.17285 1.01861,-0.24325 0.16832,-0.035 0.33661,-0.0674 0.50501,-0.0973 0.34153,-0.0607 0.68319,-0.10932 1.02464,-0.14962 0.15103,-0.018 0.30221,-0.0398 0.45302,-0.0536 0.48487,-0.0448 0.96906,-0.0762 1.45093,-0.0802 z m -22.98005,-20.4623 c 7.78187,0 15.76299,10.31917 16.0349,10.67362 0.27191,-0.35445 8.2534,-10.67362 16.03528,-10.67362 7.91788,0 14.5231,7.6602 14.33691,17.10512 -0.096,4.87019 -3.23446,10.28946 -7.44751,15.41771 -0.64878,-2.54115 -1.89659,-4.91587 -3.73371,-6.90447 -4.59404,-4.95716 -11.911,-6.5026 -18.59561,-3.92769 l 9.85155,10.65403 -10.39155,9.60868 -9.85157,-10.65441 c -2.11534,4.42507 -2.32628,9.29644 -0.77914,13.52317 -8.69607,-7.42899 -19.616,-18.54187 -19.79686,-27.71702 -0.18627,-9.44492 6.41941,-17.10512 14.33731,-17.10512 z" /><path
         style="font-weight:bold;font-size:31.9925px;line-height:1;font-family:Calibri;-inkscape-font-specification:'Calibri Bold';letter-spacing:0px;word-spacing:0px;text-orientation:upright;fill:#111827;stroke-width:2.35197;stroke-linecap:round"
         d="m 104.87496,455.4506 q 0.26217,0.28946 0.42777,0.51884 0.16669,0.20732 0.26828,0.3893 0.0911,0.1704 0.12759,0.32703 0.0365,0.15664 0.035,0.41093 -0.012,0.24272 -0.19376,0.7867 -0.17017,0.53349 -0.5245,1.21271 -0.35324,0.65714 -0.92102,1.40321 -0.55619,0.73558 -1.34352,1.44867 -1.53992,1.39471 -3.208755,2.04206 -1.668833,0.64734 -3.386621,0.49599 -1.728274,-0.16294 -3.470767,-1.15604 -1.742493,-0.9931 -3.441313,-2.86879 -1.73028,-1.91043 -2.563109,-3.85387 -0.832829,-1.94344 -0.830468,-3.7792 0.0024,-1.83575 0.804088,-3.5103 0.813305,-1.68503 2.353228,-3.07974 0.625232,-0.56628 1.298529,-0.9864 0.673297,-0.42012 1.316887,-0.68688 0.644681,-0.28882 1.23759,-0.42538 0.592909,-0.13655 0.890239,-0.11078 0.298423,0.004 0.450693,0.0555 0.152271,0.0518 0.333818,0.18241 0.181546,0.13064 0.392369,0.34014 0.222401,0.19902 0.516024,0.52321 0.314597,0.34735 0.511657,0.61147 0.197061,0.26412 0.275494,0.46707 0.07843,0.20295 0.0603,0.34583 -0.01813,0.14288 -0.122334,0.23726 -0.173676,0.15729 -0.61825,0.20165 -0.45506,0.0328 -1.103677,0.17764 -0.647525,0.12279 -1.416293,0.46077 -0.767676,0.31592 -1.578162,1.04998 -0.891535,0.80746 -1.262246,1.81765 -0.369619,0.98812 -0.248783,2.12216 0.121928,1.11198 0.737587,2.30369 0.615659,1.19171 1.70626,2.39586 1.195466,1.31993 2.342638,2.05133 1.148264,0.70932 2.212407,0.88364 1.075721,0.16382 2.065139,-0.16324 0.990509,-0.34913 1.882051,-1.1566 0.81048,-0.73405 1.23319,-1.45412 0.41223,-0.73165 0.61932,-1.34073 0.21867,-0.61957 0.31719,-1.04601 0.11009,-0.43694 0.26061,-0.57326 0.11578,-0.10487 0.2272,-0.12147 0.11142,-0.0166 0.28357,0.0804 0.17215,0.097 0.42601,0.33074 0.24338,0.22217 0.62089,0.639 z m 7.89178,-1.13521 q 0.0754,0.13684 0.0535,0.29152 -0.0293,0.141 -0.19691,0.32246 -0.15389,0.17392 -0.46722,0.38215 -0.30579,0.22191 -0.81208,0.50075 -0.50628,0.27883 -0.85729,0.41864 -0.34347,0.1535 -0.5864,0.19812 -0.22925,0.0371 -0.3641,-0.0135 -0.14239,-0.0643 -0.21775,-0.20108 l -6.70706,-12.1782 q -0.0754,-0.13684 -0.046,-0.27783 0.0218,-0.15469 0.1757,-0.32861 0.16003,-0.19514 0.46583,-0.41705 0.30579,-0.22192 0.81207,-0.50075 0.50629,-0.27883 0.8573,-0.41865 0.35101,-0.13981 0.58779,-0.16322 0.24293,-0.0446 0.38532,0.0196 0.13485,0.0506 0.21021,0.1874 z m -8.73802,-16.48113 q 0.57273,1.03994 0.36709,1.67037 -0.20564,0.63044 -1.35504,1.26346 -1.16309,0.64056 -1.78459,0.48351 -0.60783,-0.16459 -1.15796,-1.16348 -0.572737,-1.03993 -0.380781,-1.66283 0.198104,-0.64412 1.361191,-1.28468 1.1494,-0.63302 1.77845,-0.46229 0.62151,0.15706 1.17164,1.15594 z m 20.7882,-2.41481 q 0.0217,0.075 0.037,0.18444 0.0303,0.10506 0.0393,0.2488 0.0196,0.1244 0.0223,0.30249 0.0176,0.17376 0.0182,0.40121 l -0.52685,13.27295 q -0.001,0.27681 -0.0888,0.48089 -0.0768,0.18474 -0.35095,0.36142 -0.25917,0.17235 -0.76081,0.34964 -0.48663,0.17296 -1.2971,0.40686 -0.79547,0.22957 -1.31876,0.33181 -0.50396,0.11293 -0.81511,0.10517 -0.31116,-0.008 -0.48956,-0.11886 -0.16771,-0.13044 -0.31206,-0.34893 l -7.51788,-10.95127 q -0.17668,-0.27418 -0.30602,-0.497 -0.11433,-0.22715 -0.15966,-0.32788 -0.0303,-0.10506 -0.0563,-0.19511 -0.0433,-0.15009 0.001,-0.27681 0.0554,-0.14606 0.24387,-0.28174 0.18846,-0.13569 0.54001,-0.26966 0.36656,-0.1383 0.92189,-0.29857 0.61536,-0.17759 1.00357,-0.24085 0.38389,-0.0783 0.61567,-0.0639 0.24245,-0.005 0.37149,0.10415 0.12471,0.0941 0.23672,0.25687 l 5.88392,8.95147 0.19834,0.34923 -0.0182,-0.4012 0.16463,-10.69707 q -0.007,-0.1931 0.0485,-0.33916 0.0661,-0.1654 0.25888,-0.28608 0.18847,-0.13568 0.52501,-0.26533 0.34721,-0.14898 0.91755,-0.31358 0.55532,-0.16026 0.90919,-0.22987 0.36887,-0.0739 0.58565,-0.0552 0.21677,0.0187 0.32646,0.11715 0.10537,0.0834 0.14868,0.23349 z m 10.3276,13.35204 q 0.009,0.15595 -0.0775,0.28609 -0.0873,0.11454 -0.31677,0.20594 -0.21387,0.0905 -0.58638,0.14317 -0.37161,0.0683 -0.94865,0.10137 -0.57704,0.0331 -0.95402,0.008 -0.37609,-0.01 -0.61449,-0.0743 -0.22282,-0.0654 -0.32266,-0.16925 -0.10073,-0.1194 -0.10968,-0.27536 l -0.7964,-13.88016 q -0.009,-0.15596 0.0784,-0.2705 0.0864,-0.13013 0.30028,-0.22064 0.22856,-0.10699 0.60018,-0.17526 0.37161,-0.0683 0.94865,-0.10137 0.57704,-0.0331 0.95402,-0.008 0.37698,0.0253 0.60069,0.10636 0.23841,0.0646 0.33914,0.18396 0.0998,0.1038 0.10879,0.25975 z m -0.77211,-18.63826 q 0.068,1.18527 -0.38951,1.66529 -0.45752,0.48001 -1.76756,0.55518 -1.32563,0.0761 -1.81856,-0.33377 -0.47733,-0.41073 -0.54265,-1.54922 -0.068,-1.18527 0.37392,-1.66439 0.45662,-0.49561 1.78225,-0.57167 1.31004,-0.0752 1.80386,0.35026 0.49292,0.40984 0.55825,1.54832 z m 15.54737,17.65209 q -0.0504,0.40301 -0.11628,0.67815 -0.0485,0.26157 -0.1182,0.44176 -0.0543,0.18214 -0.13177,0.29839 -0.0601,0.10269 -0.26933,0.26544 -0.20733,0.14725 -0.6898,0.35455 -0.48053,0.19181 -1.07925,0.32161 -0.59872,0.1298 -1.29625,0.16852 -0.68203,0.0407 -1.39506,-0.0485 -1.59657,-0.19963 -2.7746,-0.8507 -1.16253,-0.64913 -1.8794,-1.71483 -0.71493,-1.0812 -0.97452,-2.53052 -0.24409,-1.44739 -0.0193,-3.24546 0.25971,-2.07709 0.95923,-3.51669 0.71696,-1.45317 1.77103,-2.32893 1.05408,-0.87575 2.38522,-1.19734 1.33113,-0.3216 2.85019,-0.13166 0.62003,0.0775 1.19549,0.25967 0.59096,0.1841 1.07922,0.43406 0.50376,0.2519 0.87771,0.53481 0.38944,0.28483 0.53863,0.47666 0.14919,0.19183 0.19569,0.32358 0.0639,0.1182 0.0717,0.30808 0.0232,0.19183 0.004,0.47277 -0.002,0.26739 -0.0504,0.65491 -0.11241,0.89904 -0.31394,1.25167 -0.19958,0.33713 -0.44759,0.30612 -0.26351,-0.0329 -0.53089,-0.28678 -0.26738,-0.25383 -0.63745,-0.56773 -0.37006,-0.3139 -0.90095,-0.60069 -0.53089,-0.28678 -1.30593,-0.38368 -1.51906,-0.18994 -2.47239,0.88733 -0.95139,1.06176 -1.23436,3.32486 -0.13954,1.11604 -0.0446,1.99378 0.0949,0.87773 0.41072,1.4997 0.33131,0.62392 0.88351,0.99208 0.56964,0.3546 1.36017,0.45344 0.80603,0.10078 1.40863,-0.06 0.62003,-0.17436 1.09087,-0.4146 0.47085,-0.24025 0.79443,-0.43593 0.32552,-0.21119 0.52703,-0.18599 0.13951,0.0174 0.22282,0.10657 0.0833,0.0891 0.10268,0.31196 0.0368,0.20926 0.0271,0.53865 -0.01,0.32939 -0.0737,0.84091 z m 16.59891,8.50364 q -0.0658,0.15873 -0.20626,0.25269 -0.12002,0.0855 -0.3868,0.0763 -0.24636,-0.0176 -0.65392,-0.13589 -0.40755,-0.11828 -0.99917,-0.36363 -0.93794,-0.38896 -1.32648,-0.63465 -0.37411,-0.2397 -0.50186,-0.46179 -0.11331,-0.21611 -0.13054,-0.46001 l -1.96782,-11.19963 -3.67421,8.85986 q -0.0658,0.15873 -0.20027,0.23826 -0.13446,0.0795 -0.38681,0.0764 -0.24636,-0.0176 -0.62506,-0.12392 -0.37869,-0.10632 -0.94145,-0.3397 -0.54833,-0.22739 -0.90555,-0.42626 -0.34279,-0.1929 -0.52932,-0.3548 -0.18054,-0.17634 -0.23368,-0.33367 -0.0387,-0.15134 0.0271,-0.31007 l 7.29457,-17.58985 q 0.0658,-0.15872 0.20028,-0.23826 0.14888,-0.0736 0.39524,-0.0559 0.24637,0.0176 0.62507,0.12392 0.39312,0.1123 0.94145,0.33969 0.56276,0.23338 0.90555,0.42627 0.34279,0.19289 0.52932,0.3548 0.18652,0.16191 0.22523,0.31325 0.0387,0.15135 -0.0271,0.31007 l -3.29722,7.95079 8.76011,-5.6684 q 0.1788,-0.1457 0.37097,-0.20129 0.19815,-0.07 0.45895,-0.0464 0.26079,0.0236 0.6335,0.14433 0.37272,0.12075 0.93548,0.35412 0.57719,0.23937 0.93441,0.43824 0.35722,0.19888 0.53776,0.37522 0.20095,0.16789 0.23966,0.31923 0.0387,0.15134 -0.0211,0.29564 -0.10173,0.24531 -0.33931,0.45119 -0.23759,0.20587 -0.83171,0.61903 l -7.90514,4.58549 2.08363,10.75722 q 0.0721,0.72327 0.0461,0.94922 -0.006,0.21751 -0.0535,0.33295 z m 5.15599,4.26408 q -0.0909,0.12707 -0.2398,0.1742 -0.13984,0.0344 -0.37588,-0.0383 -0.22332,-0.0637 -0.54645,-0.25635 -0.33222,-0.17996 -0.80237,-0.51617 -0.47014,-0.33621 -0.74784,-0.59241 -0.28679,-0.24349 -0.43195,-0.44332 -0.13246,-0.19075 -0.14509,-0.33422 -0.004,-0.15617 0.0873,-0.28324 l 8.08717,-11.30888 q 0.0909,-0.12707 0.23071,-0.16149 0.14894,-0.0471 0.37226,0.0165 0.24512,0.0601 0.57734,0.24002 0.33222,0.17996 0.80236,0.51617 0.47015,0.33621 0.74785,0.59241 0.27769,0.2562 0.40107,0.45965 0.14516,0.19984 0.14871,0.35601 0.0126,0.14347 -0.0782,0.27053 z M 182.76564,445.554 q -0.69059,0.9657 -1.34801,1.05251 -0.65742,0.0868 -1.72477,-0.67648 -1.08007,-0.77237 -1.20684,-1.40076 -0.11406,-0.6193 0.54927,-1.54688 0.69059,-0.96571 1.3353,-1.0616 0.66651,-0.0995 1.74657,0.67286 1.06735,0.76329 1.18504,1.40438 0.12677,0.62839 -0.53656,1.55597 z m -1.27287,22.60486 q -0.50349,0.46791 -0.84192,0.65447 -0.31636,0.18737 -0.5265,0.19073 -0.19869,-0.007 -0.48165,-0.12818 -0.26088,-0.12009 -0.57332,-0.34154 -0.31324,-0.19938 -0.64533,-0.48788 -0.32145,-0.27706 -0.61921,-0.59746 -0.79757,-0.85821 -1.16503,-1.68962 -0.36747,-0.83141 -0.30403,-1.65809 0.0749,-0.83731 0.58067,-1.66989 0.50579,-0.83259 1.44411,-1.70459 l 5.22939,-4.85985 -1.13786,-1.22438 q -0.20205,-0.21742 -0.0452,-0.57643 0.16829,-0.36965 0.79765,-0.95454 0.33184,-0.30839 0.58197,-0.49819 0.26076,-0.17835 0.4398,-0.23812 0.19048,-0.0704 0.32214,-0.0435 0.14229,0.0384 0.24863,0.1528 l 1.12723,1.21294 2.27713,-2.11621 q 0.11443,-0.10634 0.25914,-0.1342 0.15535,-0.0164 0.36144,0.0906 0.22817,0.10784 0.50628,0.3612 0.30019,0.25417 0.68302,0.66611 0.39346,0.42339 0.61436,0.72992 0.24297,0.30734 0.32319,0.53135 0.0917,0.21337 0.0639,0.3671 -0.0277,0.15373 -0.14217,0.26007 l -2.27713,2.11621 2.06304,2.21992 q 0.10634,0.11443 0.12357,0.2477 0.0279,0.14471 -0.0563,0.32954 -0.0727,0.17419 -0.28029,0.40976 -0.19695,0.24701 -0.5288,0.55541 -0.62935,0.58488 -1.01032,0.72567 -0.36953,0.13016 -0.57158,-0.0873 l -2.07368,-2.23136 -4.79456,4.45574 q -0.83533,0.7763 -1.01413,1.43295 -0.16736,0.64602 0.46006,1.32115 0.21269,0.22885 0.41716,0.38004 0.21592,0.14055 0.3893,0.23532 0.19546,0.0956 0.31487,0.15523 0.14148,0.0605 0.21591,0.14055 0.0638,0.0687 0.0712,0.16841 0.0295,0.10056 -0.0645,0.25186 -0.0825,0.14067 -0.26723,0.35498 -0.17407,0.22574 -0.49447,0.5235 z"
         id="text1"
         transform="translate(-2.8619486,3.6576247)"
         aria-label="CivicKit" /><path
         style="display:none;fill:none;fill-opacity:1;stroke:#111827;stroke-width:2.83399;stroke-linecap:round;stroke-linejoin:miter;stroke-dasharray:none;stroke-opacity:1"
         d="m 95.431798,469.06882 c 0,0 14.084402,-19.74182 40.809402,-19.73967 27.47503,0.002 40.65582,18.31045 40.65582,18.31045"
         id="path2" /></g></g><g
     id="layer2"
     transform="translate(0,-670.45412)"><g
       id="g213"
       transform="matrix(0.70572017,0,0,0.70572017,119.1873,194.61621)"
       style="display:inline"><text
         xml:space="preserve"
         style="font-style:normal;font-variant:normal;font-weight:normal;font-stretch:normal;font-size:31.9925px;line-height:1;font-family:Calibri;-inkscape-font-specification:Calibri;text-align:start;text-decoration-color:#000000;letter-spacing:0px;word-spacing:0px;writing-mode:lr-tb;direction:ltr;text-orientation:upright;text-anchor:start;fill:#111827;fill-opacity:1;stroke:none;stroke-width:2.83399;stroke-linecap:round;stroke-linejoin:miter;stroke-dasharray:none;stroke-opacity:1"
         id="text213"
         transform="translate(-2.8619486,2.5639648)"><textPath
           xlink:href="#path213"
           id="textPath213"
           style="font-style:normal;font-variant:normal;font-weight:bold;font-stretch:normal;font-size:31.9925px;font-family:Calibri;-inkscape-font-specification:'Calibri Bold';fill:#111827;fill-opacity:1;stroke:none;stroke-width:2.83398">CivicKit</textPath></text><path
         style="display:none;fill:none;fill-opacity:1;stroke:#111827;stroke-width:2.83399;stroke-linecap:round;stroke-linejoin:miter;stroke-dasharray:none;stroke-opacity:0.479933"
         d="m 95.431798,469.06882 c 0,0 14.084402,-19.74182 40.809402,-19.73967 27.47503,0.002 41.5931,17.74808 41.5931,17.74808"
         id="path213" /></g><g
       id="g7"
       transform="matrix(0.70572017,0,0,0.70572017,119.1873,194.61621)"
       style="display:inline"><text
         xml:space="preserve"
         style="font-style:normal;font-variant:normal;font-weight:normal;font-stretch:normal;font-size:31.9925px;line-height:1;font-family:Calibri;-inkscape-font-specification:Calibri;text-align:start;text-decoration-color:#000000;letter-spacing:0px;word-spacing:0px;writing-mode:lr-tb;direction:ltr;text-orientation:upright;text-anchor:start;fill:#111827;fill-opacity:1;stroke:none;stroke-width:2.83399;stroke-linecap:round;stroke-linejoin:miter;stroke-dasharray:none;stroke-opacity:1"
         id="text6"
         transform="translate(-2.8619486,2.5639648)"><textPath
           xlink:href="#path213"
           id="textPath6"
           style="font-style:normal;font-variant:normal;font-weight:bold;font-stretch:normal;font-size:31.9925px;font-family:Calibri;-inkscape-font-specification:'Calibri Bold';fill:#111827;fill-opacity:1;stroke:none;stroke-width:2.83398">CivicKit</textPath></text></g></g></svg>
