<?xml version="1.0" encoding="UTF-8" standalone="no"?>
<!-- Created with Inkscape (http://www.inkscape.org/) -->

<svg
   width="210mm"
   height="210mm"
   viewBox="0 0 210 210"
   version="1.1"
   id="svg1"
   xml:space="preserve"
   xmlns:xlink="http://www.w3.org/1999/xlink"
   xmlns="http://www.w3.org/2000/svg"
   xmlns:svg="http://www.w3.org/2000/svg"><defs
     id="defs1" /><g
     id="layer4"
     style="display:inline"
     transform="translate(0,-670.45412)"><g
       id="g5"
       style="display:none"
       transform="matrix(1.0695011,0,0,1.0695011,30.401531,630.85884)"><path
         id="path3"
         style="display:inline;fill:none;stroke:#000927;stroke-width:3;stroke-linecap:round;stroke-linejoin:round;stroke-dasharray:none"
         d="m 163.7636,116.16427 c -3.52959,30.36884 -58.82952,99.10755 -58.82952,99.10755 0,0 -55.804161,-68.4866 -58.829524,-99.10755 C 42.39978,78.666705 72.44343,55.125893 104.93408,55.125893 c 32.49065,1e-6 63.35421,22.107614 58.82952,61.038377 z" /><path
         d="m 91.556805,130.803 c -4.239684,8.86892 -2.910113,19.0453 3.378945,25.86201 6.84503,7.32513 17.9614,9.10707 27.54158,4.41486 l 39.05414,42.23578 c 0,0 5.39164,5.83092 10.94483,0.69606 5.5532,-5.13487 0.16152,-10.96577 0.16152,-10.96577 L 133.6542,150.88643 c 5.44748,-9.21922 4.51029,-20.48677 -2.31885,-27.87896 -6.30433,-6.80261 -16.34565,-8.9235 -25.5188,-5.38998 l 13.51914,14.62053 -14.2597,13.1855 z"
         style="display:inline;fill:none;stroke:#000927;stroke-width:3.20421;stroke-linecap:round;stroke-linejoin:round"
         id="path4" /><path
         id="path5"
         style="display:inline;fill:none;stroke:#000927;stroke-width:3;stroke-linecap:round;stroke-linejoin:round;stroke-dasharray:none"
         d="m 82.995345,87.852126 c -10.865549,6e-6 -19.930043,10.511684 -19.674451,23.472774 0.411052,20.84421 41.267166,49.07449 41.672706,49.36324 0.41867,-0.28875 41.27446,-28.51903 41.68551,-49.36324 C 146.9347,98.36381 137.87021,87.852132 127.00466,87.852126 116.32574,87.852125 105.37314,102.01272 105,102.49914 104.62686,102.01272 93.674255,87.852125 82.995345,87.852126 Z" /></g><g
       id="g2"
       transform="matrix(1.7247921,0,0,1.7247921,-128.98441,-112.47346)"
       style="display:inline"><path
         id="path1"
         style="display:inline;fill:none;stroke:#111827;stroke-width:3.95309;stroke-linecap:round;stroke-linejoin:round;stroke-dasharray:none;stroke-opacity:1"
         d="m 134.74155,456.45249 -2e-5,-2.4e-4 c 23.67636,0 46.16716,16.11044 42.86996,44.47984 -0.97345,8.37576 -7.35522,20.75489 -14.90669,32.90957 l -7.03442,-7.60717 c 2.5042,-4.23804 3.15239,-9.06894 2.04366,-13.41131 3.68642,-4.48723 6.55012,-9.1972 7.2728,-13.56722 0.10313,-0.62432 0.16283,-1.24173 0.17473,-1.85049 0.18627,-9.44492 -6.41903,-17.10514 -14.33691,-17.10514 -0.48635,0 -0.97361,0.0405 -1.45962,0.11622 -5.34592,0.83233 -10.55254,5.9428 -13.04979,8.74027 -0.90808,1.01729 -1.45767,1.72857 -1.52587,1.81737 -0.068,-0.0886 -0.61781,-0.80008 -1.52587,-1.81737 -2.72418,-3.05179 -8.67265,-8.85627 -14.50903,-8.85627 -7.91788,0 -14.5235,7.66022 -14.33731,17.10514 0.11306,5.73445 4.42114,12.22571 9.75929,18.10156 1.06763,1.17515 2.17632,2.3258 3.30103,3.44075 2.24947,2.2299 4.56254,4.31745 6.73654,6.17469 0.71249,1.9465 1.7965,3.75658 3.24158,5.32289 3.11752,3.33616 7.4511,5.09551 11.96715,5.10931 0.45148,10e-4 0.90496,-0.0144 1.35905,-0.0478 2.27109,-0.16775 4.56205,-0.77556 6.74368,-1.84406 l 8.99033,9.72275 c -10.84115,16.15201 -21.77427,29.76744 -21.77427,29.76744 0,0 -40.665347,-49.90703 -42.869947,-72.22091 -2.69974,-27.32498 19.193557,-44.47982 42.869947,-44.47982 z m 6.99298,44.31037 -5.9e-4,8.1e-4 c 0.52037,-0.005 1.03721,0.0204 1.5511,0.0611 0.14545,0.0117 0.2899,0.0291 0.43458,0.0429 0.3977,0.0415 0.79234,0.0972 1.18395,0.16643 0.12458,0.0217 0.24999,0.0399 0.37392,0.0646 0.49944,0.0996 0.99365,0.21894 1.47958,0.36264 0.0849,0.0253 0.16754,0.0567 0.25194,0.0832 0.40325,0.12644 0.80065,0.26879 1.19221,0.42553 0.13907,0.0557 0.27725,0.11345 0.41462,0.17275 0.38647,0.16723 0.76634,0.34896 1.13874,0.54602 0.0783,0.0411 0.15913,0.0773 0.23683,0.11998 0.44247,0.24353 0.87231,0.51089 1.29126,0.79644 0.10496,0.0716 0.20598,0.14965 0.30955,0.22375 0.3216,0.23074 0.63512,0.47398 0.9403,0.7298 0.14512,0.12164 0.29196,0.2406 0.43308,0.36789 0.0738,0.0664 0.14717,0.13298 0.21987,0.20098 0.27178,0.25448 0.53867,0.51584 0.79418,0.79157 1.6075,1.74001 2.76364,3.77553 3.46223,5.95964 0.0999,0.31203 0.19028,0.62719 0.27148,0.94484 1.10873,4.3424 0.46056,9.17325 -2.04363,13.41132 l 7.03439,7.60717 21.37355,23.11542 c 0,0 3.9289,4.24904 -0.1178,7.9909 -4.04666,3.74183 -7.97584,-0.50725 -7.97584,-0.50725 l -19.46889,-21.05501 -8.99032,-9.72276 c -6.98117,3.41924 -15.08185,2.12044 -20.06992,-3.21746 -1.44503,-1.56629 -2.52905,-3.3764 -3.24155,-5.32288 -0.19339,-0.52835 -0.35928,-1.06688 -0.49744,-1.61325 -0.1383,-0.54634 -0.24861,-1.10056 -0.33101,-1.66068 -0.0824,-0.56013 -0.13677,-1.12613 -0.16267,-1.69572 -0.0252,-0.5696 -0.023,-1.14273 0.008,-1.71755 0.0306,-0.57484 0.0906,-1.15118 0.17907,-1.72697 0.0884,-0.57579 0.20544,-1.15108 0.3521,-1.72359 0.14654,-0.5725 0.3225,-1.14242 0.52758,-1.7074 0.20521,-0.56493 0.43978,-1.12487 0.70419,-1.678 l 9.85157,10.6544 10.39155,-9.60865 -9.85155,-10.65404 c 0.47757,-0.18396 0.95909,-0.34103 1.44191,-0.48314 0.15156,-0.0447 0.30367,-0.0813 0.45567,-0.12176 0.33898,-0.0905 0.67847,-0.17285 1.01861,-0.24325 0.16832,-0.035 0.33661,-0.0674 0.50501,-0.0973 0.34153,-0.0607 0.68319,-0.10932 1.02464,-0.14962 0.15103,-0.018 0.30221,-0.0398 0.45302,-0.0536 0.48487,-0.0448 0.96906,-0.0762 1.45093,-0.0802 z m -22.98005,-20.4623 c 7.78187,0 15.76299,10.31917 16.0349,10.67362 0.27191,-0.35445 8.2534,-10.67362 16.03528,-10.67362 7.91788,0 14.5231,7.6602 14.33691,17.10512 -0.096,4.87019 -3.23446,10.28946 -7.44751,15.41771 -0.64878,-2.54115 -1.89659,-4.91587 -3.73371,-6.90447 -4.59404,-4.95716 -11.911,-6.5026 -18.59561,-3.92769 l 9.85155,10.65403 -10.39155,9.60868 -9.85157,-10.65441 c -2.11534,4.42507 -2.32628,9.29644 -0.77914,13.52317 -8.69607,-7.42899 -19.616,-18.54187 -19.79686,-27.71702 -0.18627,-9.44492 6.41941,-17.10512 14.33731,-17.10512 z" /><text
         xml:space="preserve"
         style="font-style:normal;font-variant:normal;font-weight:normal;font-stretch:normal;font-size:31.9925px;line-height:1;font-family:Calibri;-inkscape-font-specification:Calibri;text-align:start;text-decoration-color:#000000;letter-spacing:0px;word-spacing:0px;writing-mode:lr-tb;direction:ltr;text-orientation:upright;text-anchor:start;display:none;fill:#111827;fill-opacity:1;stroke:none;stroke-width:2.35197;stroke-linecap:round;stroke-linejoin:miter;stroke-dasharray:none;stroke-opacity:1"
         id="text1"
         transform="translate(-2.8619486,3.6576247)"><textPath
           xlink:href="#path213"
           id="textPath1"
           style="font-style:normal;font-variant:normal;font-weight:bold;font-stretch:normal;font-size:31.9925px;font-family:Calibri;-inkscape-font-specification:'Calibri Bold';fill:#111827;fill-opacity:1;stroke:none;stroke-width:2.35197;stroke-dasharray:none">CivicKit</textPath></text><path
         style="display:none;fill:none;fill-opacity:1;stroke:#111827;stroke-width:2.83399;stroke-linecap:round;stroke-linejoin:miter;stroke-dasharray:none;stroke-opacity:1"
         d="m 95.431798,469.06882 c 0,0 14.084402,-19.74182 40.809402,-19.73967 27.47503,0.002 40.65582,18.31045 40.65582,18.31045"
         id="path2" /></g></g><g
     id="layer2"
     transform="translate(0,-670.45412)"><g
       id="g213"
       transform="matrix(0.70572017,0,0,0.70572017,119.1873,194.61621)"
       style="display:inline"><text
         xml:space="preserve"
         style="font-style:normal;font-variant:normal;font-weight:normal;font-stretch:normal;font-size:31.9925px;line-height:1;font-family:Calibri;-inkscape-font-specification:Calibri;text-align:start;text-decoration-color:#000000;letter-spacing:0px;word-spacing:0px;writing-mode:lr-tb;direction:ltr;text-orientation:upright;text-anchor:start;fill:#111827;fill-opacity:1;stroke:none;stroke-width:2.83399;stroke-linecap:round;stroke-linejoin:miter;stroke-dasharray:none;stroke-opacity:1"
         id="text213"
         transform="translate(-2.8619486,2.5639648)"><textPath
           xlink:href="#path213"
           id="textPath213"
           style="font-style:normal;font-variant:normal;font-weight:bold;font-stretch:normal;font-size:31.9925px;font-family:Calibri;-inkscape-font-specification:'Calibri Bold';fill:#111827;fill-opacity:1;stroke:none;stroke-width:2.83398">CivicKit</textPath></text><path
         style="display:none;fill:none;fill-opacity:1;stroke:#111827;stroke-width:2.83399;stroke-linecap:round;stroke-linejoin:miter;stroke-dasharray:none;stroke-opacity:0.479933"
         d="m 95.431798,469.06882 c 0,0 14.084402,-19.74182 40.809402,-19.73967 27.47503,0.002 41.5931,17.74808 41.5931,17.74808"
         id="path213" /></g><g
       id="g7"
       transform="matrix(0.70572017,0,0,0.70572017,119.1873,194.61621)"
       style="display:inline"><text
         xml:space="preserve"
         style="font-style:normal;font-variant:normal;font-weight:normal;font-stretch:normal;font-size:31.9925px;line-height:1;font-family:Calibri;-inkscape-font-specification:Calibri;text-align:start;text-decoration-color:#000000;letter-spacing:0px;word-spacing:0px;writing-mode:lr-tb;direction:ltr;text-orientation:upright;text-anchor:start;fill:#111827;fill-opacity:1;stroke:none;stroke-width:2.83399;stroke-linecap:round;stroke-linejoin:miter;stroke-dasharray:none;stroke-opacity:1"
         id="text6"
         transform="translate(-2.8619486,2.5639648)"><textPath
           xlink:href="#path213"
           id="textPath6"
           style="font-style:normal;font-variant:normal;font-weight:bold;font-stretch:normal;font-size:31.9925px;font-family:Calibri;-inkscape-font-specification:'Calibri Bold';fill:#111827;fill-opacity:1;stroke:none;stroke-width:2.83398">CivicKit</textPath></text></g></g></svg>
